<svg xmlns="http://www.w3.org/2000/svg" version="1.1" xmlns:xlink="http://www.w3.org/1999/xlink" xmlns:svgjs="http://svgjs.com/svgjs" width="1440" height="560" preserveAspectRatio="none" viewBox="0 0 1440 560">
    <g mask="url(&quot;#SvgjsMask1000&quot;)" fill="none">
        <rect width="1440" height="560" x="0" y="0" fill="#0e2a47"></rect>
        <path d="M136.31 62.39L201.27 99.89L201.27 174.89L136.31 212.39L71.36 174.89L71.36 99.89zM71.36 399.89L136.31 437.39L136.31 512.39L71.36 549.89L6.41 512.39L6.41 437.39zM266.22 62.39L331.18 99.89L331.18 174.89L266.22 212.39L201.27 174.89L201.27 99.89zM266.22 287.39L331.18 324.89L331.18 399.89L266.22 437.39L201.27 399.89L201.27 324.89zM201.27 399.89L266.22 437.39L266.22 512.39L201.27 549.89L136.31 512.39L136.31 437.39zM266.22 512.39L331.18 549.89L331.18 624.89L266.22 662.39L201.27 624.89L201.27 549.89zM331.18 -50.11L396.13 -12.61L396.13 62.39L331.18 99.89L266.22 62.39L266.22 -12.61zM396.13 62.39L461.08 99.89L461.08 174.89L396.13 212.39L331.18 174.89L331.18 99.89zM331.18 174.89L396.13 212.39L396.13 287.39L331.18 324.89L266.22 287.39L266.22 212.39zM396.13 287.39L461.08 324.89L461.08 399.89L396.13 437.39L331.18 399.89L331.18 324.89zM396.13 512.39L461.08 549.89L461.08 624.89L396.13 662.39L331.18 624.89L331.18 549.89zM461.08 -50.11L526.04 -12.61L526.04 62.39L461.08 99.89L396.13 62.39L396.13 -12.61zM461.08 174.89L526.04 212.39L526.04 287.39L461.08 324.89L396.13 287.39L396.13 212.39zM461.08 399.89L526.04 437.39L526.04 512.39L461.08 549.89L396.13 512.39L396.13 437.39zM655.94 62.39L720.9 99.89L720.9 174.89L655.94 212.39L590.99 174.89L590.99 99.89zM590.99 174.89L655.94 212.39L655.94 287.39L590.99 324.89L526.04 287.39L526.04 212.39zM655.94 512.39L720.9 549.89L720.9 624.89L655.94 662.39L590.99 624.89L590.99 549.89zM720.9 -50.11L785.85 -12.61L785.85 62.39L720.9 99.89L655.94 62.39L655.94 -12.61zM720.9 174.89L785.85 212.39L785.85 287.39L720.9 324.89L655.94 287.39L655.94 212.39zM785.85 287.39L850.81 324.89L850.81 399.89L785.85 437.39L720.9 399.89L720.9 324.89zM720.9 399.89L785.85 437.39L785.85 512.39L720.9 549.89L655.94 512.39L655.94 437.39zM785.85 512.39L850.81 549.89L850.81 624.89L785.85 662.39L720.9 624.89L720.9 549.89zM980.71 -50.11L1045.67 -12.61L1045.67 62.39L980.71 99.89L915.76 62.39L915.76 -12.61zM1175.57 62.39L1240.53 99.89L1240.53 174.89L1175.57 212.39L1110.62 174.89L1110.62 99.89zM1175.57 287.39L1240.53 324.89L1240.53 399.89L1175.57 437.39L1110.62 399.89L1110.62 324.89zM1110.62 399.89L1175.57 437.39L1175.57 512.39L1110.62 549.89L1045.67 512.39L1045.67 437.39zM1175.57 512.39L1240.53 549.89L1240.53 624.89L1175.57 662.39L1110.62 624.89L1110.62 549.89zM1305.48 62.39L1370.43 99.89L1370.43 174.89L1305.48 212.39L1240.53 174.89L1240.53 99.89zM1240.53 174.89L1305.48 212.39L1305.48 287.39L1240.53 324.89L1175.57 287.39L1175.57 212.39zM1305.48 512.39L1370.43 549.89L1370.43 624.89L1305.48 662.39L1240.53 624.89L1240.53 549.89zM1370.43 174.89L1435.39 212.39L1435.39 287.39L1370.43 324.89L1305.48 287.39L1305.48 212.39zM1370.43 399.89L1435.39 437.39L1435.39 512.39L1370.43 549.89L1305.48 512.39L1305.48 437.39zM1565.3 62.39L1630.25 99.89L1630.25 174.89L1565.3 212.39L1500.34 174.89L1500.34 99.89zM1565.3 512.39L1630.25 549.89L1630.25 624.89L1565.3 662.39L1500.34 624.89L1500.34 549.89z" stroke="#03305d" stroke-width="2"></path>
        <path d="M128.81 62.39 a7.5 7.5 0 1 0 15 0 a7.5 7.5 0 1 0 -15 0zM193.77 99.89 a7.5 7.5 0 1 0 15 0 a7.5 7.5 0 1 0 -15 0zM193.77 174.89 a7.5 7.5 0 1 0 15 0 a7.5 7.5 0 1 0 -15 0zM128.81 212.39 a7.5 7.5 0 1 0 15 0 a7.5 7.5 0 1 0 -15 0zM63.86 174.89 a7.5 7.5 0 1 0 15 0 a7.5 7.5 0 1 0 -15 0zM63.86 99.89 a7.5 7.5 0 1 0 15 0 a7.5 7.5 0 1 0 -15 0zM63.86 399.89 a7.5 7.5 0 1 0 15 0 a7.5 7.5 0 1 0 -15 0zM128.81 437.39 a7.5 7.5 0 1 0 15 0 a7.5 7.5 0 1 0 -15 0zM128.81 512.39 a7.5 7.5 0 1 0 15 0 a7.5 7.5 0 1 0 -15 0zM63.86 549.89 a7.5 7.5 0 1 0 15 0 a7.5 7.5 0 1 0 -15 0zM-1.09 512.39 a7.5 7.5 0 1 0 15 0 a7.5 7.5 0 1 0 -15 0zM-1.09 437.39 a7.5 7.5 0 1 0 15 0 a7.5 7.5 0 1 0 -15 0zM258.72 62.39 a7.5 7.5 0 1 0 15 0 a7.5 7.5 0 1 0 -15 0zM323.68 99.89 a7.5 7.5 0 1 0 15 0 a7.5 7.5 0 1 0 -15 0zM323.68 174.89 a7.5 7.5 0 1 0 15 0 a7.5 7.5 0 1 0 -15 0zM258.72 212.39 a7.5 7.5 0 1 0 15 0 a7.5 7.5 0 1 0 -15 0zM258.72 287.39 a7.5 7.5 0 1 0 15 0 a7.5 7.5 0 1 0 -15 0zM323.68 324.89 a7.5 7.5 0 1 0 15 0 a7.5 7.5 0 1 0 -15 0zM323.68 399.89 a7.5 7.5 0 1 0 15 0 a7.5 7.5 0 1 0 -15 0zM258.72 437.39 a7.5 7.5 0 1 0 15 0 a7.5 7.5 0 1 0 -15 0zM193.77 399.89 a7.5 7.5 0 1 0 15 0 a7.5 7.5 0 1 0 -15 0zM193.77 324.89 a7.5 7.5 0 1 0 15 0 a7.5 7.5 0 1 0 -15 0zM258.72 512.39 a7.5 7.5 0 1 0 15 0 a7.5 7.5 0 1 0 -15 0zM193.77 549.89 a7.5 7.5 0 1 0 15 0 a7.5 7.5 0 1 0 -15 0zM323.68 549.89 a7.5 7.5 0 1 0 15 0 a7.5 7.5 0 1 0 -15 0zM323.68 624.89 a7.5 7.5 0 1 0 15 0 a7.5 7.5 0 1 0 -15 0zM258.72 662.39 a7.5 7.5 0 1 0 15 0 a7.5 7.5 0 1 0 -15 0zM193.77 624.89 a7.5 7.5 0 1 0 15 0 a7.5 7.5 0 1 0 -15 0zM323.68 -50.11 a7.5 7.5 0 1 0 15 0 a7.5 7.5 0 1 0 -15 0zM388.63 -12.61 a7.5 7.5 0 1 0 15 0 a7.5 7.5 0 1 0 -15 0zM388.63 62.39 a7.5 7.5 0 1 0 15 0 a7.5 7.5 0 1 0 -15 0zM258.72 -12.61 a7.5 7.5 0 1 0 15 0 a7.5 7.5 0 1 0 -15 0zM453.58 99.89 a7.5 7.5 0 1 0 15 0 a7.5 7.5 0 1 0 -15 0zM453.58 174.89 a7.5 7.5 0 1 0 15 0 a7.5 7.5 0 1 0 -15 0zM388.63 212.39 a7.5 7.5 0 1 0 15 0 a7.5 7.5 0 1 0 -15 0zM388.63 287.39 a7.5 7.5 0 1 0 15 0 a7.5 7.5 0 1 0 -15 0zM453.58 324.89 a7.5 7.5 0 1 0 15 0 a7.5 7.5 0 1 0 -15 0zM453.58 399.89 a7.5 7.5 0 1 0 15 0 a7.5 7.5 0 1 0 -15 0zM388.63 437.39 a7.5 7.5 0 1 0 15 0 a7.5 7.5 0 1 0 -15 0zM388.63 512.39 a7.5 7.5 0 1 0 15 0 a7.5 7.5 0 1 0 -15 0zM453.58 549.89 a7.5 7.5 0 1 0 15 0 a7.5 7.5 0 1 0 -15 0zM453.58 624.89 a7.5 7.5 0 1 0 15 0 a7.5 7.5 0 1 0 -15 0zM388.63 662.39 a7.5 7.5 0 1 0 15 0 a7.5 7.5 0 1 0 -15 0zM453.58 -50.11 a7.5 7.5 0 1 0 15 0 a7.5 7.5 0 1 0 -15 0zM518.54 -12.61 a7.5 7.5 0 1 0 15 0 a7.5 7.5 0 1 0 -15 0zM518.54 62.39 a7.5 7.5 0 1 0 15 0 a7.5 7.5 0 1 0 -15 0zM518.54 212.39 a7.5 7.5 0 1 0 15 0 a7.5 7.5 0 1 0 -15 0zM518.54 287.39 a7.5 7.5 0 1 0 15 0 a7.5 7.5 0 1 0 -15 0zM518.54 437.39 a7.5 7.5 0 1 0 15 0 a7.5 7.5 0 1 0 -15 0zM518.54 512.39 a7.5 7.5 0 1 0 15 0 a7.5 7.5 0 1 0 -15 0zM648.44 62.39 a7.5 7.5 0 1 0 15 0 a7.5 7.5 0 1 0 -15 0zM713.4 99.89 a7.5 7.5 0 1 0 15 0 a7.5 7.5 0 1 0 -15 0zM713.4 174.89 a7.5 7.5 0 1 0 15 0 a7.5 7.5 0 1 0 -15 0zM648.44 212.39 a7.5 7.5 0 1 0 15 0 a7.5 7.5 0 1 0 -15 0zM583.49 174.89 a7.5 7.5 0 1 0 15 0 a7.5 7.5 0 1 0 -15 0zM583.49 99.89 a7.5 7.5 0 1 0 15 0 a7.5 7.5 0 1 0 -15 0zM648.44 287.39 a7.5 7.5 0 1 0 15 0 a7.5 7.5 0 1 0 -15 0zM583.49 324.89 a7.5 7.5 0 1 0 15 0 a7.5 7.5 0 1 0 -15 0zM648.44 512.39 a7.5 7.5 0 1 0 15 0 a7.5 7.5 0 1 0 -15 0zM713.4 549.89 a7.5 7.5 0 1 0 15 0 a7.5 7.5 0 1 0 -15 0zM713.4 624.89 a7.5 7.5 0 1 0 15 0 a7.5 7.5 0 1 0 -15 0zM648.44 662.39 a7.5 7.5 0 1 0 15 0 a7.5 7.5 0 1 0 -15 0zM583.49 624.89 a7.5 7.5 0 1 0 15 0 a7.5 7.5 0 1 0 -15 0zM583.49 549.89 a7.5 7.5 0 1 0 15 0 a7.5 7.5 0 1 0 -15 0zM713.4 -50.11 a7.5 7.5 0 1 0 15 0 a7.5 7.5 0 1 0 -15 0zM778.35 -12.61 a7.5 7.5 0 1 0 15 0 a7.5 7.5 0 1 0 -15 0zM778.35 62.39 a7.5 7.5 0 1 0 15 0 a7.5 7.5 0 1 0 -15 0zM648.44 -12.61 a7.5 7.5 0 1 0 15 0 a7.5 7.5 0 1 0 -15 0zM778.35 212.39 a7.5 7.5 0 1 0 15 0 a7.5 7.5 0 1 0 -15 0zM778.35 287.39 a7.5 7.5 0 1 0 15 0 a7.5 7.5 0 1 0 -15 0zM713.4 324.89 a7.5 7.5 0 1 0 15 0 a7.5 7.5 0 1 0 -15 0zM843.31 324.89 a7.5 7.5 0 1 0 15 0 a7.5 7.5 0 1 0 -15 0zM843.31 399.89 a7.5 7.5 0 1 0 15 0 a7.5 7.5 0 1 0 -15 0zM778.35 437.39 a7.5 7.5 0 1 0 15 0 a7.5 7.5 0 1 0 -15 0zM713.4 399.89 a7.5 7.5 0 1 0 15 0 a7.5 7.5 0 1 0 -15 0zM778.35 512.39 a7.5 7.5 0 1 0 15 0 a7.5 7.5 0 1 0 -15 0zM648.44 437.39 a7.5 7.5 0 1 0 15 0 a7.5 7.5 0 1 0 -15 0zM843.31 549.89 a7.5 7.5 0 1 0 15 0 a7.5 7.5 0 1 0 -15 0zM843.31 624.89 a7.5 7.5 0 1 0 15 0 a7.5 7.5 0 1 0 -15 0zM778.35 662.39 a7.5 7.5 0 1 0 15 0 a7.5 7.5 0 1 0 -15 0zM973.21 -50.11 a7.5 7.5 0 1 0 15 0 a7.5 7.5 0 1 0 -15 0zM1038.17 -12.61 a7.5 7.5 0 1 0 15 0 a7.5 7.5 0 1 0 -15 0zM1038.17 62.39 a7.5 7.5 0 1 0 15 0 a7.5 7.5 0 1 0 -15 0zM973.21 99.89 a7.5 7.5 0 1 0 15 0 a7.5 7.5 0 1 0 -15 0zM908.26 62.39 a7.5 7.5 0 1 0 15 0 a7.5 7.5 0 1 0 -15 0zM908.26 -12.61 a7.5 7.5 0 1 0 15 0 a7.5 7.5 0 1 0 -15 0zM1168.07 62.39 a7.5 7.5 0 1 0 15 0 a7.5 7.5 0 1 0 -15 0zM1233.03 99.89 a7.5 7.5 0 1 0 15 0 a7.5 7.5 0 1 0 -15 0zM1233.03 174.89 a7.5 7.5 0 1 0 15 0 a7.5 7.5 0 1 0 -15 0zM1168.07 212.39 a7.5 7.5 0 1 0 15 0 a7.5 7.5 0 1 0 -15 0zM1103.12 174.89 a7.5 7.5 0 1 0 15 0 a7.5 7.5 0 1 0 -15 0zM1103.12 99.89 a7.5 7.5 0 1 0 15 0 a7.5 7.5 0 1 0 -15 0zM1168.07 287.39 a7.5 7.5 0 1 0 15 0 a7.5 7.5 0 1 0 -15 0zM1233.03 324.89 a7.5 7.5 0 1 0 15 0 a7.5 7.5 0 1 0 -15 0zM1233.03 399.89 a7.5 7.5 0 1 0 15 0 a7.5 7.5 0 1 0 -15 0zM1168.07 437.39 a7.5 7.5 0 1 0 15 0 a7.5 7.5 0 1 0 -15 0zM1103.12 399.89 a7.5 7.5 0 1 0 15 0 a7.5 7.5 0 1 0 -15 0zM1103.12 324.89 a7.5 7.5 0 1 0 15 0 a7.5 7.5 0 1 0 -15 0zM1168.07 512.39 a7.5 7.5 0 1 0 15 0 a7.5 7.5 0 1 0 -15 0zM1103.12 549.89 a7.5 7.5 0 1 0 15 0 a7.5 7.5 0 1 0 -15 0zM1038.17 512.39 a7.5 7.5 0 1 0 15 0 a7.5 7.5 0 1 0 -15 0zM1038.17 437.39 a7.5 7.5 0 1 0 15 0 a7.5 7.5 0 1 0 -15 0zM1233.03 549.89 a7.5 7.5 0 1 0 15 0 a7.5 7.5 0 1 0 -15 0zM1233.03 624.89 a7.5 7.5 0 1 0 15 0 a7.5 7.5 0 1 0 -15 0zM1168.07 662.39 a7.5 7.5 0 1 0 15 0 a7.5 7.5 0 1 0 -15 0zM1103.12 624.89 a7.5 7.5 0 1 0 15 0 a7.5 7.5 0 1 0 -15 0zM1297.98 62.39 a7.5 7.5 0 1 0 15 0 a7.5 7.5 0 1 0 -15 0zM1362.93 99.89 a7.5 7.5 0 1 0 15 0 a7.5 7.5 0 1 0 -15 0zM1362.93 174.89 a7.5 7.5 0 1 0 15 0 a7.5 7.5 0 1 0 -15 0zM1297.98 212.39 a7.5 7.5 0 1 0 15 0 a7.5 7.5 0 1 0 -15 0zM1297.98 287.39 a7.5 7.5 0 1 0 15 0 a7.5 7.5 0 1 0 -15 0zM1297.98 512.39 a7.5 7.5 0 1 0 15 0 a7.5 7.5 0 1 0 -15 0zM1362.93 549.89 a7.5 7.5 0 1 0 15 0 a7.5 7.5 0 1 0 -15 0zM1362.93 624.89 a7.5 7.5 0 1 0 15 0 a7.5 7.5 0 1 0 -15 0zM1297.98 662.39 a7.5 7.5 0 1 0 15 0 a7.5 7.5 0 1 0 -15 0zM1427.89 212.39 a7.5 7.5 0 1 0 15 0 a7.5 7.5 0 1 0 -15 0zM1427.89 287.39 a7.5 7.5 0 1 0 15 0 a7.5 7.5 0 1 0 -15 0zM1362.93 324.89 a7.5 7.5 0 1 0 15 0 a7.5 7.5 0 1 0 -15 0zM1362.93 399.89 a7.5 7.5 0 1 0 15 0 a7.5 7.5 0 1 0 -15 0zM1427.89 437.39 a7.5 7.5 0 1 0 15 0 a7.5 7.5 0 1 0 -15 0zM1427.89 512.39 a7.5 7.5 0 1 0 15 0 a7.5 7.5 0 1 0 -15 0zM1297.98 437.39 a7.5 7.5 0 1 0 15 0 a7.5 7.5 0 1 0 -15 0zM1557.8 62.39 a7.5 7.5 0 1 0 15 0 a7.5 7.5 0 1 0 -15 0zM1622.75 99.89 a7.5 7.5 0 1 0 15 0 a7.5 7.5 0 1 0 -15 0zM1622.75 174.89 a7.5 7.5 0 1 0 15 0 a7.5 7.5 0 1 0 -15 0zM1557.8 212.39 a7.5 7.5 0 1 0 15 0 a7.5 7.5 0 1 0 -15 0zM1492.84 174.89 a7.5 7.5 0 1 0 15 0 a7.5 7.5 0 1 0 -15 0zM1492.84 99.89 a7.5 7.5 0 1 0 15 0 a7.5 7.5 0 1 0 -15 0zM1557.8 512.39 a7.5 7.5 0 1 0 15 0 a7.5 7.5 0 1 0 -15 0zM1622.75 549.89 a7.5 7.5 0 1 0 15 0 a7.5 7.5 0 1 0 -15 0zM1622.75 624.89 a7.5 7.5 0 1 0 15 0 a7.5 7.5 0 1 0 -15 0zM1557.8 662.39 a7.5 7.5 0 1 0 15 0 a7.5 7.5 0 1 0 -15 0zM1492.84 624.89 a7.5 7.5 0 1 0 15 0 a7.5 7.5 0 1 0 -15 0zM1492.84 549.89 a7.5 7.5 0 1 0 15 0 a7.5 7.5 0 1 0 -15 0z" fill="#03305d"></path>
        <path d="M30.59 425.95L73.89 450.95L73.89 500.95L30.59 525.95L-12.71 500.95L-12.71 450.95zM203.8 275.95L247.1 300.95L247.1 350.95L203.8 375.95L160.5 350.95L160.5 300.95zM377.01 -24.05L420.31 0.95L420.31 50.95L377.01 75.95L333.71 50.95L333.71 0.95zM420.31 200.95L463.62 225.95L463.62 275.95L420.31 300.95L377.01 275.95L377.01 225.95zM463.62 275.95L506.92 300.95L506.92 350.95L463.62 375.95L420.31 350.95L420.31 300.95zM506.92 350.95L550.22 375.95L550.22 425.95L506.92 450.95L463.62 425.95L463.62 375.95zM636.83 125.95L680.13 150.95L680.13 200.95L636.83 225.95L593.52 200.95L593.52 150.95zM723.43 425.95L766.73 450.95L766.73 500.95L723.43 525.95L680.13 500.95L680.13 450.95zM939.94 50.95L983.25 75.95L983.25 125.95L939.94 150.95L896.64 125.95L896.64 75.95zM1156.45 125.95L1199.76 150.95L1199.76 200.95L1156.45 225.95L1113.15 200.95L1113.15 150.95zM1286.36 50.95L1329.66 75.95L1329.66 125.95L1286.36 150.95L1243.06 125.95L1243.06 75.95zM1329.66 125.95L1372.97 150.95L1372.97 200.95L1329.66 225.95L1286.36 200.95L1286.36 150.95zM1416.27 -24.05L1459.57 0.95L1459.57 50.95L1416.27 75.95L1372.97 50.95L1372.97 0.95zM1459.57 500.95L1502.88 525.95L1502.88 575.95L1459.57 600.95L1416.27 575.95L1416.27 525.95z" stroke="rgba(6, 80, 156, 0.93)" stroke-width="2"></path>
    </g>
    <defs>
        <mask id="SvgjsMask1000">
            <rect width="1440" height="560" fill="#ffffff"></rect>
        </mask>
    </defs>
</svg>